<?xml version="1.0" encoding="utf-8"?>
<!-- Generator: Adobe Illustrator 16.0.0, SVG Export Plug-In . SVG Version: 6.00 Build 0)  -->
<!DOCTYPE svg PUBLIC "-//W3C//DTD SVG 1.1//EN" "http://www.w3.org/Graphics/SVG/1.1/DTD/svg11.dtd">
<svg version="1.1" id="Слой_1" xmlns="http://www.w3.org/2000/svg" xmlns:xlink="http://www.w3.org/1999/xlink" x="0px" y="0px"
	 width="400px" height="400px" viewBox="0 0 400 400" enable-background="new 0 0 400 400" xml:space="preserve">
<linearGradient id="SVGID_1_" gradientUnits="userSpaceOnUse" x1="98.1309" y1="188.0605" x2="266.165" y2="188.0605">
	<stop  offset="0" style="stop-color:#575756"/>
	<stop  offset="0" style="stop-color:#3C3C3B"/>
	<stop  offset="0" style="stop-color:#3C3C3B"/>
	<stop  offset="1" style="stop-color:#000000"/>
	<stop  offset="1" style="stop-color:#000000"/>
</linearGradient>
<path fill="url(#SVGID_1_)" d="M158.091,124.745C158.091,124.746,158.091,124.745,158.091,124.745
	c6.033,7.068,12.065,14.137,18.098,21.205c29.992,35.143,59.985,70.284,89.976,105.427L158.091,124.745z"/>
<linearGradient id="SVGID_3_" gradientUnits="userSpaceOnUse" x1="98.1309" y1="70.7783" x2="246.9613" y2="70.7783">
	<stop  offset="0" style="stop-color:#575756"/>
	<stop  offset="0" style="stop-color:#3C3C3B"/>
	<stop  offset="0" style="stop-color:#3C3C3B"/>
	<stop  offset="1" style="stop-color:#000000"/>
	<stop  offset="1" style="stop-color:#000000"/>
</linearGradient>
<path fill="url(#SVGID_3_)" d="M125.934,87.066c-9.268-10.858-18.535-21.717-27.803-32.576
	c9.257,10.846,18.514,21.692,27.771,32.539"/>
<linearGradient id="SVGID_5_" gradientUnits="userSpaceOnUse" x1="76.9727" y1="109.0986" x2="96.8026" y2="109.0986">
	<stop  offset="0" style="stop-color:#575756"/>
	<stop  offset="0" style="stop-color:#3C3C3B"/>
	<stop  offset="0" style="stop-color:#3C3C3B"/>
	<stop  offset="1" style="stop-color:#000000"/>
	<stop  offset="1" style="stop-color:#000000"/>
</linearGradient>
<path fill="url(#SVGID_5_)" d="M96.699,117.557c-5.443-5.681-10.443-11.681-15.121-17.033c5.075,5.717,0.002,0.003,0,0
	c5.075,5.717,10.149,11.433,15.224,17.15"/>
<linearGradient id="SVGID_7_" gradientUnits="userSpaceOnUse" x1="105.6367" y1="212.0352" x2="227.256" y2="212.0352">
	<stop  offset="0" style="stop-color:#575756"/>
	<stop  offset="0" style="stop-color:#3C3C3B"/>
	<stop  offset="0" style="stop-color:#3C3C3B"/>
	<stop  offset="1" style="stop-color:#000000"/>
	<stop  offset="1" style="stop-color:#000000"/>
</linearGradient>
<path fill="url(#SVGID_7_)" d="M227.256,264.627c-31-34.75-62-69.751-93.371-105.182"/>
<linearGradient id="SVGID_9_" gradientUnits="userSpaceOnUse" x1="39.6948" y1="78.1216" x2="220.0206" y2="78.1216">
	<stop  offset="0" style="stop-color:#575756"/>
	<stop  offset="0" style="stop-color:#3C3C3B"/>
	<stop  offset="0" style="stop-color:#3C3C3B"/>
	<stop  offset="1" style="stop-color:#000000"/>
	<stop  offset="1" style="stop-color:#000000"/>
</linearGradient>
<path fill="url(#SVGID_9_)" d="M41.812,55.726c13.255,14.933,26.512,29.865,39.767,44.797C68.321,85.589,55.063,70.654,41.806,55.72
	"/>
<linearGradient id="SVGID_11_" gradientUnits="userSpaceOnUse" x1="134.1836" y1="206.1445" x2="275.0068" y2="206.1445">
	<stop  offset="0" style="stop-color:#575756"/>
	<stop  offset="0" style="stop-color:#3C3C3B"/>
	<stop  offset="0" style="stop-color:#3C3C3B"/>
	<stop  offset="1" style="stop-color:#000000"/>
	<stop  offset="1" style="stop-color:#000000"/>
</linearGradient>
<polygon fill="url(#SVGID_11_)" points="256.047,239.521 158.377,125.081 152.589,130.292 149.089,134.626 145.422,139.376 
	141.172,145.542 138.506,150.626 135.839,156.042 134.184,159.782 247.09,287.209 252.923,284.041 258.423,280.291 264.673,274.791 
	270.173,268.791 275.007,261.209 "/>
<linearGradient id="SVGID_13_" gradientUnits="userSpaceOnUse" x1="40.9683" y1="54.7227" x2="98.2568" y2="54.7227">
	<stop  offset="0.6737" style="stop-color:#3C3C3B"/>
	<stop  offset="1" style="stop-color:#3C3C3B"/>
</linearGradient>
<path fill="none" stroke="url(#SVGID_13_)" stroke-miterlimit="10" d="M40.975,54.63c19.281,0.246,38.281,0.246,57.276,0"/>
<linearGradient id="SVGID_14_" gradientUnits="userSpaceOnUse" x1="106.4146" y1="91.7109" x2="124.6079" y2="91.7109">
	<stop  offset="0.9947" style="stop-color:#3C3C3B"/>
	<stop  offset="1" style="stop-color:#000000"/>
</linearGradient>
<linearGradient id="SVGID_15_" gradientUnits="userSpaceOnUse" x1="105.9146" y1="91.7109" x2="125.1079" y2="91.7109">
	<stop  offset="0.6737" style="stop-color:#3C3C3B"/>
	<stop  offset="1" style="stop-color:#3C3C3B"/>
</linearGradient>
<path fill="url(#SVGID_14_)" stroke="url(#SVGID_15_)" stroke-miterlimit="10" d="M114.312,94.682
	c1.678-1.317,3.387-2.59,5.12-3.834c1.662-1.193,3.243-2.685,5.073-3.616c0.032-0.017,0.063-0.015,0.095-0.026
	c0.041-0.51-0.053-1.029-0.309-1.466c-0.718-1.226-2.206-1.515-3.42-0.897c-0.145,0.074-0.825,0.339-0.153,0.092
	c-0.699,0.258-1.261,0.74-1.573,1.348c-0.163,0.094-0.32,0.2-0.468,0.326c-0.712,0.607-1.42,1.211-2.093,1.862
	c-0.045,0.043-0.088,0.089-0.132,0.134c-0.443,0.097-0.86,0.309-1.181,0.661c-0.016,0.017-0.027,0.034-0.042,0.05
	c-0.131,0.092-0.254,0.199-0.364,0.325c-0.435,0.496-0.873,0.999-1.347,1.459c-0.043,0.016-0.429,0.328-0.534,0.4
	c-0.322,0.221-0.647,0.472-0.924,0.759c-0.091-0.139-0.19-0.274-0.316-0.4c-0.914-0.914-2.639-1.028-3.535,0
	c-0.473,0.542-1.004,1.055-1.346,1.695c-0.668,1.253-0.526,2.471,0.025,3.726c0.444,1.009,1.788,1.724,2.864,1.601
	c0.153-0.018,0.284-0.038,0.419-0.059c1.181-1.229,2.579-2.304,4.043-3.255C114.009,95.306,113.97,94.95,114.312,94.682z"/>
<path fill="#3C3C3B" d="M98.25,54.63l-52.144,5.934l50.912,57.353l0.885-0.921c3.373-5.355,7.754-10.527,11.969-15.291
	c-0.045-0.2-0.014-0.41,0.135-0.583c-0.688,0.336-1.236-0.659-0.78-1.231c1.343-1.684,3.108-3.107,4.984-4.325
	c-0.203-0.261-0.241-0.616,0.1-0.883c1.678-1.317,3.387-2.59,5.12-3.834c1.662-1.193,3.243-2.685,5.073-3.616
	c0.37-0.188,0.713-0.047,0.923,0.201c0.133-0.101,0.273-0.198,0.426-0.287c0.033-0.02,0.07-0.033,0.104-0.051L98.25,54.63z"/>
<path fill="#3C3C3B" d="M97.884,54.202c-0.445,0.121-0.886,0.083-1.347,0.097c-0.247,0.007-0.438-0.064-0.604-0.163
	c-0.315,0.005-0.63,0.025-0.945,0.025c-0.133,0.049-0.279,0.082-0.451,0.075c-0.561-0.021-1.122-0.029-1.684-0.041
	c-0.413,0.026-0.827,0.03-1.254,0.009c-0.109-0.005-0.201-0.04-0.296-0.069c-0.392,0.016-0.784,0.037-1.176,0.08
	c-0.685,0.076-1.354,0.149-2.007,0.023c-0.322,0.125-0.649,0.087-0.936-0.063c-0.006,0-0.008,0-0.016-0.001
	c-0.185-0.006-0.37-0.005-0.554,0.008c-0.061,0.004-0.416,0.044-0.406,0.038c-0.068,0.011-0.137,0.022-0.204,0.037
	c-0.283,0.065-0.566,0.021-0.813-0.092c-0.45,0.041-0.9,0.087-1.343,0.072c-0.029-0.001-0.049-0.016-0.077-0.018
	c-0.157,0.082-0.332,0.129-0.517,0.112c-0.396-0.036-0.79-0.085-1.188-0.094c-0.097-0.002-0.17-0.038-0.255-0.057
	c-0.963,0.081-1.919,0.058-2.87-0.028c-0.247,0.007-0.493-0.011-0.74-0.011c-0.025,0.007-0.047,0.018-0.074,0.023
	c-2.419,0.498-5.132,0.035-7.593,0.011c-0.019,0-0.032-0.008-0.05-0.009c-0.732,0.263-1.492,0.201-2.262,0.228
	c-0.907,0.032-1.812,0.051-2.719,0c-0.131-0.007-0.245-0.039-0.352-0.079c-0.594,0.042-1.186,0.011-1.775-0.064
	c-0.431,0.029-0.865,0.034-1.306-0.013c-0.236,0.147-0.533,0.21-0.879,0.124c-0.645-0.16-1.365,0.03-2.021,0.042
	c-0.109,0.002-0.205-0.016-0.297-0.037c-0.063,0.009-0.113,0.037-0.182,0.037c-1.322-0.001-2.641-0.028-3.958-0.146
	c-0.084-0.007-0.153-0.035-0.227-0.056c-0.174,0.125-0.378,0.219-0.648,0.222c-1.226,0.015-2.404,0.132-3.624-0.063
	c-0.152-0.024-0.287-0.09-0.403-0.18l-8.995,0.45l2.442,2.751l2.826,3.183L98.25,54.63L97.884,54.202z"/>
<linearGradient id="SVGID_18_" gradientUnits="userSpaceOnUse" x1="46.106" y1="57.8838" x2="94.0728" y2="57.8838">
	<stop  offset="1" style="stop-color:#3C3C3B"/>
	<stop  offset="1" style="stop-color:#3C3C3B"/>
</linearGradient>
<path fill="url(#SVGID_18_)" d="M93.589,55.042c-7.387-0.026-14.815-0.619-22.133,0.685c-0.634,0.113-0.365,1.076,0.266,0.964
	c0.576-0.103,1.153-0.174,1.73-0.254c-0.369,0.156-0.435,0.666-0.161,0.862c-1.091,0.132-2.184,0.262-3.286,0.327
	c-3.509,0.207-6.991-0.289-10.5,0.125c-0.497,0.059-0.602,0.682-0.316,0.913c-0.275,0.039-0.551,0.071-0.828,0.103
	c-1.101-0.141-2.195-0.215-3.301,0.104c-1.394-0.018-2.839-0.096-4.188,0.273c-0.246,0.067-0.349,0.258-0.35,0.455
	c-1.297,0.18-2.6,0.313-3.934,0.277c-0.645-0.018-0.644,0.982,0,1c3.143,0.085,6.146-0.691,9.258-0.977
	c0.548,0.008,1.095-0.008,1.64-0.048c0.505,0.004,1.011,0.004,1.517-0.015c0.666,0.097,1.333,0.193,2.001,0.207
	c0.37,0.007,0.52-0.317,0.466-0.599c0.668-0.174,1.333-0.368,2-0.502c0.238-0.048,0.348-0.209,0.36-0.388
	c2.055,0.012,4.112,0.116,6.173,0.072c1.847-0.04,3.649-0.331,5.458-0.529c-0.074,0.292,0.074,0.637,0.458,0.613
	c3.661-0.229,7.344-0.455,10.959-1.062c1.124,0.033,2.249,0.057,3.374,0.062c0.487,0.002,0.605-0.567,0.356-0.847
	c0.595-0.155,1.188-0.318,1.777-0.504c0.153-0.048,0.261-0.178,0.316-0.326c0.295,0.002,0.59,0.009,0.884,0.01
	C94.234,56.045,94.234,55.045,93.589,55.042z M86.757,56.646c-0.481-0.015-0.961-0.039-1.442-0.058
	c-0.015-0.023-0.041-0.038-0.06-0.058c0.24-0.026,0.371-0.203,0.391-0.408c1.252-0.052,2.507-0.063,3.766,0
	C88.532,56.326,87.646,56.494,86.757,56.646z"/>
<polygon fill="#3C3C3B" points="107.674,104.216 116.714,94.918 125.427,87.432 124.381,86.834 106.415,100.251 "/>
<linearGradient id="SVGID_20_" gradientUnits="userSpaceOnUse" x1="139.7559" y1="114.543" x2="139.7559" y2="114.543">
	<stop  offset="1" style="stop-color:#3C3C3B"/>
	<stop  offset="1" style="stop-color:#3C3C3B"/>
</linearGradient>
<path fill="#3C3C3B" stroke="url(#SVGID_20_)" stroke-miterlimit="10" d="M139.756,114.543"/>
<path fill="#3C3C3B" d="M120.482,86.309c-10.462,5.58-17.708,15.752-24.294,25.294c-3.674,5.322,4.998,10.315,8.635,5.047
	c5.625-8.15,11.771-16.94,20.706-21.706C131.221,91.908,126.169,83.275,120.482,86.309z"/>
<linearGradient id="SVGID_21_" gradientUnits="userSpaceOnUse" x1="40.9746" y1="54.6304" x2="98.2505" y2="54.6304">
	<stop  offset="0" style="stop-color:#575756"/>
	<stop  offset="0" style="stop-color:#3C3C3B"/>
	<stop  offset="0" style="stop-color:#3C3C3B"/>
</linearGradient>
<line fill="none" stroke="url(#SVGID_21_)" stroke-miterlimit="10" x1="40.975" y1="54.63" x2="98.25" y2="54.63"/>
<path fill="#3C3C3B" d="M93.756,54.126c-8.338,0.1-16.834,1.893-25.145,1.004c-5.707-0.61-12.107-2.161-17.378,0.929
	c-5.559,3.258-0.529,11.903,5.047,8.635c0.951-0.558,2.176-0.783,3.526-0.817c0.651,0.939,1.671,1.611,3.067,1.736
	c1.07,0.892,2.508,1.383,4.213,1.085c4.658-0.813,9.465-0.391,14.171-0.571c1.417-0.054,2.504-0.582,3.299-1.35
	c3.087-0.311,6.167-0.614,9.201-0.65C100.2,64.049,100.208,54.049,93.756,54.126z"/>
<path fill="#3C3C3B" d="M149.501,120.478c-2.682,3.878-7.16,6.058-9.926,9.958c-3.124,4.405-6.67,8.646-9.512,13.229
	c-0.683,1.102-0.875,2.182-0.729,3.164c-0.815,1.601-1.568,3.23-2.272,4.874c-0.657,1.074-1.32,2.146-1.811,3.274
	c-1.834,4.214,1.108,8.031,5.646,7.345c3.009-0.455,4.201-3.513,5.117-5.992c0.075-0.202,0.125-0.405,0.164-0.61
	c0.503-0.867,1.004-1.736,1.457-2.633c0.393-0.777,0.705-1.594,0.989-2.42c2.209-4.012,4.868-7.758,7.886-11.251
	c3.885-4.494,8.341-8.993,11.625-13.892C161.75,120.133,153.132,115.226,149.501,120.478z"/>
<g>
	<path fill="#800000008000000080000000" d="M280.711,325.475c-10.399,6.4-21.6,11.4-33.6,15c-12,3.602-24.801,5.4-38.4,5.4
		c-20.8,0-39.668-4.131-56.6-12.4c-16.938-8.262-31.469-19.063-43.6-32.398c-12.138-13.332-21.538-28.664-28.2-46
		c-6.668-17.332-10-35.063-10-53.202c0-18.931,3.531-37.063,10.6-54.399c7.063-17.331,16.8-32.663,29.2-46
		c12.4-13.332,27.131-23.931,44.2-31.8c17.063-7.862,35.6-11.8,55.6-11.8c20.531,0,39.263,4.2,56.2,12.6
		c16.931,8.4,31.399,19.4,43.399,33s21.332,29.069,28,46.399c6.663,17.338,10,34.938,10,52.801c0,18.401-3.269,36.001-9.8,52.8
		c-6.537,16.801-15.669,31.738-27.399,44.801l38.8,43.6h-52L280.711,325.475z M275.111,260.676c5.331-8.531,9.462-17.863,12.399-28
		c2.932-10.131,4.4-20.402,4.4-30.802c0-12.262-1.938-24.131-5.8-35.6c-3.869-11.463-9.338-21.6-16.4-30.4
		c-7.068-8.799-15.737-15.862-26-21.2c-10.269-5.331-21.8-8-34.6-8c-13.338,0-25.2,2.738-35.6,8.2
		c-10.4,5.469-19.069,12.738-26,21.8c-6.938,9.068-12.2,19.269-15.8,30.6c-3.6,11.338-5.4,22.869-5.4,34.6
		c0,12.269,1.863,24.14,5.6,35.601c3.731,11.469,9.131,21.602,16.2,30.4c7.063,8.801,15.731,15.869,26,21.201
		c10.262,5.336,21.932,8,35,8c7.199,0,13.932-0.863,20.199-2.602c6.264-1.73,12.063-4.063,17.4-7 M203.512,238.676"/>
</g>
<rect x="146.704" y="128.601" fill="none" width="21.552" height="0"/>
<line fill="none" x1="363.756" y1="236.648" x2="363.756" y2="239.877"/>
<defs>
	<filter id="Adobe_OpacityMaskFilter" filterUnits="userSpaceOnUse" x="203.512" y="238.675" width="51.999" height="0">
		<feColorMatrix  type="matrix" values="1 0 0 0 0  0 1 0 0 0  0 0 1 0 0  0 0 0 1 0"/>
	</filter>
</defs>
<mask maskUnits="userSpaceOnUse" x="203.512" y="238.675" width="51.999" height="0" id="SVGID_22_">
	<g filter="url(#Adobe_OpacityMaskFilter)">
	</g>
</mask>
<line mask="url(#SVGID_22_)" fill="none" x1="255.511" y1="238.676" x2="203.512" y2="238.676"/>
<defs>
	<filter id="Adobe_OpacityMaskFilter_1_" filterUnits="userSpaceOnUse" x="246.711" y="261.208" width="28.296" height="26.266">
		<feColorMatrix  type="matrix" values="1 0 0 0 0  0 1 0 0 0  0 0 1 0 0  0 0 0 1 0"/>
	</filter>
</defs>
<mask maskUnits="userSpaceOnUse" x="246.711" y="261.208" width="28.296" height="26.266" id="SVGID_23_">
	<g filter="url(#Adobe_OpacityMaskFilter_1_)">
	</g>
</mask>
<polyline mask="url(#SVGID_23_)" fill="none" points="246.711,287.475 250.756,285.252 255.506,282.627 260.381,279.752 
	264.756,276.502 268.256,273.502 271.256,269.502 273.506,265.752 275.007,261.209 "/>
</svg>
